<svg xmlns="http://www.w3.org/2000/svg" fill="#888" viewBox="0 0 98.75 26.89"><defs><style>.a{fill:#1d1d1b;}</style></defs><path class="a" d="M12.49,25.3a.16.16,0,0,1-.14-.05A5.72,5.72,0,0,1,11,22.69a13.88,13.88,0,0,1-.37-3.4,24.75,24.75,0,0,1,.28-3.7,39.91,39.91,0,0,0-4.68.76q-3.36,5.83-6,8.08H.16c-.09,0-.14-.05-.16-.16a.13.13,0,0,1,0-.06.09.09,0,0,1,0,0q2.51-2.11,5.77-7.75a15.62,15.62,0,0,0-4.85,2,.36.36,0,0,1-.24.09.49.49,0,0,1-.22-.08.31.31,0,0,1-.12-.28.48.48,0,0,1,.29-.41A19,19,0,0,1,6.09,16a.52.52,0,0,1,.08-.11l0-.07a.07.07,0,0,0,0-.05l.11-.19q1.2-2,2.31-4C10.15,9,11.6,6.52,13,4.28l.14-.12c.2,0,.3.07.3.22-.22,1.35-.47,2.79-.77,4.31Q12,12,11.55,15.21a25.2,25.2,0,0,0,3-.57h.12l0,.14a.22.22,0,0,1-.1.16,26.14,26.14,0,0,1-3.08.55,28.24,28.24,0,0,0-.21,3.41q0,.92.12,2.61a9,9,0,0,0,1.19,3.6l0,0a.3.3,0,0,1,0,.1s0,0,0,0h-.07Zm-6-9.37,1.91-.3,1.77-.24.78-.1q.51-3.49,1.23-6.72c.33-1.48.57-2.65.71-3.51q-1.71,2.76-3.71,6.25-1.25,2.17-2.58,4.42Z" transform="translate(0 -3.53)"/><path class="a" d="M14.34,19.39c-.16,0-.24-.1-.24-.29a4.51,4.51,0,0,1,.28-1.19A10.6,10.6,0,0,1,15,16.43a.55.55,0,0,1,.41-.29c.26,0,.39.1.39.29h0a.45.45,0,0,1,0,.17,14.15,14.15,0,0,0-.94,2,13.36,13.36,0,0,1,1.49-1.31,2.56,2.56,0,0,1,1.39-.67,1.42,1.42,0,0,1,.74.17,1.26,1.26,0,0,1,.43.43c.09.18.19.35.27.53a1.88,1.88,0,0,0,.31.6.68.68,0,0,0,.6.25,15.35,15.35,0,0,0,4.22-1l2.57-1h0l0,0a.34.34,0,0,1,.12.08.16.16,0,0,1,0,.11v0s0,0,0,.07l-.78.31A19.53,19.53,0,0,1,20,18.89a1.81,1.81,0,0,1-1.5-.48,2.78,2.78,0,0,1-.46-1,1.42,1.42,0,0,0-.14-.38c0-.1-.11-.14-.25-.14a2.6,2.6,0,0,0-1.39.74,18.64,18.64,0,0,0-1.71,1.62l0,0-.07.05A.22.22,0,0,1,14.34,19.39Z" transform="translate(0 -3.53)"/><path class="a" d="M37,16.61a.24.24,0,0,1,.14,0l0,.05a.22.22,0,0,1,0,.09l-.07.08a14.25,14.25,0,0,1-6.5,2.2,2.53,2.53,0,0,1-1.42-.35,1.35,1.35,0,0,1-.59-1l-.48.45a2.36,2.36,0,0,1-1.36.77q-.77,0-.81-.9a2,2,0,0,1,.34-1,3.93,3.93,0,0,1,.86-1,1.75,1.75,0,0,1,1.09-.43.74.74,0,0,1,.66.27,1,1,0,0,1,.19.63c0,.06,0,.1,0,.11h-.18l-.06,0a.12.12,0,0,1,0-.09c0-.25-.16-.38-.47-.39a1.16,1.16,0,0,0-.78.38,3.57,3.57,0,0,0-.71.88,1.88,1.88,0,0,0-.28.83c0,.28.09.44.26.47a1.46,1.46,0,0,0,.79-.38,11.39,11.39,0,0,0,1.05-1,.23.23,0,0,1,.24-.13c.21,0,.31.09.31.27,0,.88.48,1.33,1.44,1.33a14.35,14.35,0,0,0,6.33-2.11Z" transform="translate(0 -3.53)"/><path class="a" d="M50.83,18.27q.29-.82.84-2.16c.55-1.35,1.17-2.67,1.85-4a31.78,31.78,0,0,1,2.17-3.55A13.75,13.75,0,0,1,58,6a3.54,3.54,0,0,1,2.23-1,1.15,1.15,0,0,1,.87.36,1.65,1.65,0,0,1,.35,1.17,11.49,11.49,0,0,1-.38,2.78,30.42,30.42,0,0,1-1,3.13c-.41,1.1-.87,2.25-1.36,3.44-.78,1.88-1.49,3.75-2.11,5.58a15.64,15.64,0,0,0-.95,5A5.28,5.28,0,0,0,56,28.38a3.66,3.66,0,0,0,1,1.55.3.3,0,0,1,.1.22q0,.26-.27.27a.31.31,0,0,1-.22-.09,4.41,4.41,0,0,1-.94-1.68,7.18,7.18,0,0,1-.32-2.13,18.82,18.82,0,0,1,1-5.78c.73-2.16,1.47-4.15,2.21-6,.44-1.11.84-2.16,1.21-3.15a28.62,28.62,0,0,0,.87-2.76,9.35,9.35,0,0,0,.32-2.34,1.6,1.6,0,0,0-.19-.85.57.57,0,0,0-.53-.31,3.38,3.38,0,0,0-2.11,1,13.73,13.73,0,0,0-2.26,2.57,32,32,0,0,0-2.17,3.6,43,43,0,0,0-2.53,5.81,14.87,14.87,0,0,0-1,4.49c0,.11-.07.17-.21.17s-.2-.06-.2-.17a17.82,17.82,0,0,1,.87-5.33c.63-1.95,1.27-3.75,1.91-5.38S53.58,9.2,54,8a11,11,0,0,0,.59-3.28c0-.57-.19-.86-.56-.88A3.12,3.12,0,0,0,51.91,5a20.17,20.17,0,0,0-2.39,3.18,46.84,46.84,0,0,0-2.37,4.26q-1.12,2.3-2,4.52c-.61,1.47-1.1,2.78-1.45,3.92a9.63,9.63,0,0,0-.54,2.44c0,.16-.09.24-.26.24a.21.21,0,0,1-.24-.24,25.75,25.75,0,0,1,.67-5.14A58.39,58.39,0,0,1,45,12.06a31.94,31.94,0,0,1,2.13-5.12.37.37,0,0,1,.34-.23.34.34,0,0,1,.15,0,.19.19,0,0,1,.12.11.39.39,0,0,1,0,.14.29.29,0,0,1-.06.15A46.81,46.81,0,0,0,45,14a42.08,42.08,0,0,0-1.62,6.64,46.16,46.16,0,0,1,2.47-6.26,46.79,46.79,0,0,1,4.65-8.18q2-2.7,3.5-2.7c.63,0,1,.38,1,1.16a12.31,12.31,0,0,1-.33,2.77,25.68,25.68,0,0,1-.87,2.91c-.36,1-.75,2-1.16,3C51.9,15.23,51.29,16.86,50.83,18.27Z" transform="translate(0 -3.53)"/><path class="a" d="M71.72,16.61a.24.24,0,0,1,.14,0s0,0,0,.05a.2.2,0,0,1,0,.09l-.07.08c-2.64,1.47-4.8,2.2-6.5,2.2a2.5,2.5,0,0,1-1.42-.35,1.32,1.32,0,0,1-.59-1l-.48.45A2.36,2.36,0,0,1,61.5,19q-.77,0-.81-.9A2,2,0,0,1,61,17a3.74,3.74,0,0,1,.86-1A1.75,1.75,0,0,1,63,15.6a.75.75,0,0,1,.66.27,1,1,0,0,1,.19.63c0,.06,0,.1,0,.11H63.6l-.06,0a.12.12,0,0,1,0-.09c0-.25-.16-.38-.47-.39a1.18,1.18,0,0,0-.79.38,3.77,3.77,0,0,0-.7.88,1.76,1.76,0,0,0-.28.83c0,.28.09.44.26.47a1.46,1.46,0,0,0,.79-.38,11.39,11.39,0,0,0,1-1,.23.23,0,0,1,.24-.13c.2,0,.31.09.31.27,0,.88.48,1.33,1.44,1.33a14.35,14.35,0,0,0,6.33-2.11Z" transform="translate(0 -3.53)"/><path class="a" d="M72.63,20c-.71,0-1.07-.24-1.09-.73a2.17,2.17,0,0,1,.32-1,1.59,1.59,0,0,0,.23-.68.68.68,0,0,0-.2-.41,1.31,1.31,0,0,1-.33-.82.89.89,0,0,1,.42-.75,1.6,1.6,0,0,1,.79-.33.32.32,0,0,1,.23.09.3.3,0,0,1,.09.21.56.56,0,0,1-.14.33,4,4,0,0,1-.83.77,1.6,1.6,0,0,0,.28.4,1,1,0,0,1,.3.61,1.57,1.57,0,0,1-.23.71,2.47,2.47,0,0,0-.27,1c0,.25.14.37.43.38q2.57,0,7.39-3.13h.06c.11,0,.17.06.17.18l-.08.09C77,19,74.45,20,72.63,20Zm.15-4.45a1,1,0,0,0-.76.78v0a3.17,3.17,0,0,0,.51-.44C72.7,15.78,72.78,15.66,72.78,15.59Z" transform="translate(0 -3.53)"/><path class="a" d="M81.29,19.27c-1.18,0-1.78-.46-1.8-1.39a2.58,2.58,0,0,1,.57-1.61.33.33,0,0,1,.31-.16.54.54,0,0,1,.27.07.18.18,0,0,1,.11.17v.08a2.68,2.68,0,0,0-.47,1.5,1.11,1.11,0,0,0,.25.7,1,1,0,0,0,.76.36,7.38,7.38,0,0,0,2.06-.36c.8-.24,1.58-.52,2.34-.83s1.41-.59,1.93-.84l.81-.36c.11,0,.17,0,.17.14a.13.13,0,0,1,0,.08.05.05,0,0,1,0,0s-.3.15-.81.39-1.15.52-1.9.83A13.1,13.1,0,0,1,81.29,19.27Zm-.82-3.61a.13.13,0,0,1-.14-.14,3.25,3.25,0,0,1,.58-.62.35.35,0,0,1,.17-.06q.18,0,.18.18t-.72.63Z" transform="translate(0 -3.53)"/><path class="a" d="M98.55,16.61a.22.22,0,0,1,.14,0l0,.05a.22.22,0,0,1,0,.09l-.07.08a14.25,14.25,0,0,1-6.5,2.2,2.49,2.49,0,0,1-1.41-.35,1.37,1.37,0,0,1-.6-1l-.48.45a2.36,2.36,0,0,1-1.36.77q-.77,0-.81-.9a2.11,2.11,0,0,1,.34-1,3.78,3.78,0,0,1,.87-1,1.73,1.73,0,0,1,1.09-.43.76.76,0,0,1,.66.27,1.12,1.12,0,0,1,.19.63c0,.06,0,.1-.06.11h-.18l-.06,0a.12.12,0,0,1,0-.09c0-.25-.15-.38-.47-.39a1.18,1.18,0,0,0-.78.38,3.53,3.53,0,0,0-.7.88,1.79,1.79,0,0,0-.29.83c0,.28.09.44.26.47a1.43,1.43,0,0,0,.79-.38,11.39,11.39,0,0,0,1-1,.25.25,0,0,1,.24-.13c.21,0,.31.09.31.27,0,.88.48,1.33,1.45,1.33a14.43,14.43,0,0,0,6.33-2.11Z" transform="translate(0 -3.53)"/></svg>